<svg width="25" height="24" viewBox="0 0 25 24" fill="none" xmlns="http://www.w3.org/2000/svg">
<path d="M22.045 7.871L21.006 4.799C20.517 3.355 19.912 2.25101 17 2.25101H8.00001C5.08801 2.25101 4.483 3.355 3.995 4.799L2.95398 7.87199C2.49298 9.23599 2.83601 10.688 3.75001 11.644V18C3.75001 20.418 5.08201 21.75 7.50001 21.75H17.5C19.918 21.75 21.25 20.418 21.25 18V11.643C22.164 10.687 22.506 9.235 22.045 7.871ZM4.37501 8.35201L5.41602 5.27901C5.76002 4.26101 5.93301 3.75 8.00001 3.75H17C19.067 3.75 19.24 4.26101 19.585 5.27901L20.624 8.351C20.968 9.365 20.604 10.455 19.761 10.942C18.534 11.65 16.677 10.944 16.252 9.74899C16.146 9.44999 15.862 9.25 15.545 9.25C15.544 9.25 15.543 9.25 15.542 9.25C15.224 9.251 14.9401 9.453 14.8361 9.754C14.5401 10.607 13.536 11.25 12.5 11.25C11.464 11.25 10.4599 10.607 10.1639 9.754C10.0599 9.453 9.77601 9.251 9.45801 9.25C9.17301 9.284 8.85405 9.44899 8.74805 9.74899C8.44405 10.604 7.43505 11.25 6.39905 11.25C5.98805 11.25 5.58702 11.144 5.23902 10.942C4.39602 10.456 4.03201 9.36601 4.37501 8.35201ZM13.78 20.25H11.28V17.5C11.28 16.811 11.841 16.25 12.53 16.25C13.219 16.25 13.78 16.811 13.78 17.5V20.25ZM17.5 20.25H15.28V17.5C15.28 15.983 14.047 14.75 12.53 14.75C11.013 14.75 9.78003 15.983 9.78003 17.5V20.25H7.50001C5.92301 20.25 5.25001 19.577 5.25001 18V12.554C6.72001 12.986 8.45606 12.501 9.45106 11.413C10.1931 12.228 11.324 12.749 12.5 12.749C13.676 12.749 14.807 12.228 15.549 11.413C16.295 12.228 17.427 12.749 18.601 12.749C18.994 12.749 19.38 12.682 19.75 12.566V18C19.75 19.577 19.077 20.25 17.5 20.25Z" fill="white"/>
</svg>
